<svg width="24" height="24" viewBox="0 0 24 24" fill="none" xmlns="http://www.w3.org/2000/svg">
<path d="M2.48324 10.8147C2.17381 11.1291 2 11.5552 2 11.9994C2 12.4437 2.17381 12.8698 2.48324 13.1841L8.7138 19.5088C9.02378 19.8233 9.4442 20 9.88258 20C10.321 20 10.7414 19.8233 11.0514 19.5088C11.3613 19.1943 11.5355 18.7678 11.5355 18.323C11.5355 17.8782 11.3613 17.4517 11.0514 17.1372L7.64086 13.6759H20.3476C20.7859 13.6759 21.2061 13.4993 21.516 13.1849C21.8259 12.8705 22 12.4441 22 11.9994C22 11.5548 21.8259 11.1284 21.516 10.814C21.2061 10.4996 20.7859 10.323 20.3476 10.323H7.64086L11.0514 6.8628C11.2048 6.70707 11.3266 6.5222 11.4097 6.31874C11.4927 6.11528 11.5355 5.89721 11.5355 5.67699C11.5355 5.45676 11.4927 5.23869 11.4097 5.03523C11.3266 4.83177 11.2048 4.6469 11.0514 4.49118C10.8979 4.33545 10.7157 4.21193 10.5151 4.12765C10.3146 4.04338 10.0996 4 9.88258 4C9.66552 4 9.45058 4.04338 9.25004 4.12765C9.0495 4.21193 8.86729 4.33545 8.7138 4.49118L2.48324 10.8147Z" fill="white"/>
</svg>
