<svg width="325" height="99" viewBox="0 0 325 99" fill="none" xmlns="http://www.w3.org/2000/svg">
<path d="M313.503 0H11.4971C5.14743 0 0 4.2619 0 9.51923V89.4808C0 94.7381 5.14743 99 11.4971 99H313.503C319.853 99 325 94.7381 325 89.4808V9.51923C325 4.2619 319.853 0 313.503 0Z" fill="#40807E"/>
<path d="M313.296 0H11.7041C5.24011 0 0 4.52529 0 10.1075V83.8925C0 89.4747 5.24011 94 11.7041 94H313.296C319.76 94 325 89.4747 325 83.8925V10.1075C325 4.52529 319.76 0 313.296 0Z" fill="#43AA8B"/>
<mask id="mask0_6736_2935" style="mask-type:alpha" maskUnits="userSpaceOnUse" x="0" y="0" width="325" height="94">
<path d="M313.296 0H11.7041C5.24011 0 0 4.52529 0 10.1075V83.8925C0 89.4747 5.24011 94 11.7041 94H313.296C319.76 94 325 89.4747 325 83.8925V10.1075C325 4.52529 319.76 0 313.296 0Z" fill="#43AA8B"/>
</mask>
<g mask="url(#mask0_6736_2935)">
<g opacity="0.499">
<path d="M289.06 38.4903C301.736 16.3017 311.596 18.3963 314.797 35.5328C317.999 52.6692 276.388 60.6855 289.06 38.4903Z" fill="#43AA8B"/>
<path opacity="0.5" d="M-22.2179 36.2479C-22.2179 36.2479 2.43407 56.0719 37.2621 36.2479C72.0901 16.4239 103.752 12.7479 104.05 36.2479C104.348 59.7479 252.57 7.92994 252.57 7.92994C252.57 7.92994 300.801 -6.67006 268.399 46.4899C235.997 99.6499 342.206 36.2479 342.206 36.2479V145.97H-22.2179V36.2479Z" fill="#40807E"/>
<path d="M-22 75.6181C-22 75.6181 -8.40295 67.3027 -5.06843 75.6181C-1.73392 83.9336 16.9458 71.691 16.9458 71.691C16.9458 71.691 27.4285 64.0813 35.8878 71.691C44.3471 79.3007 72.1391 63.9625 72.1391 63.9625C72.1391 63.9625 88.1901 53.3041 116.08 71.6949C143.97 90.0858 198.364 68.7811 198.364 68.7811C198.364 68.7811 238.687 47.2048 256.846 71.6949C275.006 96.1851 325 68.7811 325 68.7811V118H-22V75.6181Z" fill="#40807E"/>
<path opacity="0.5" d="M324.999 -20.8968C324.999 -20.8968 327.125 -57.0269 155.195 14.671C-16.7347 86.3689 19.3391 -9.99467 19.3391 -9.99467C19.3391 -9.99467 42.444 -64.6003 -47.7103 7.06557C-137.865 78.7314 -36.2086 109 -36.2086 109H324.998L324.999 -20.8968Z" fill="#40807E"/>
</g>
</g>
</svg>
